<svg width="100" height="100" viewBox="0 0 100 100" fill="none" xmlns="http://www.w3.org/2000/svg">
<g filter="url(#filter0_i_28_96)">
<rect width="100" height="100" rx="30" fill="url(#paint0_linear_28_96)"/>
</g>
<path d="M24.4092 80.6344C24.5031 80.3833 24.6739 79.9676 24.9218 79.3874C25.1697 78.8072 25.4434 78.2095 25.7429 77.5945C26.0425 76.9794 26.3378 76.386 26.6289 75.8142C26.9201 75.2424 27.1342 74.8351 27.2713 74.5925C28.7818 72.3728 30.5091 70.3076 32.4532 68.3969C34.4406 66.4947 36.5192 64.7001 38.6891 63.0131C40.8938 61.3778 43.1681 59.8458 45.5121 58.4172C47.8993 56.9971 50.2565 55.616 52.5836 54.2739C53.11 54.1072 53.8906 53.788 54.9255 53.3164C55.9519 52.888 56.9519 52.3647 57.9256 51.7464C58.9341 51.1798 59.8128 50.5879 60.5618 49.9707C61.354 49.362 61.7965 48.8197 61.8893 48.3439C62.0917 47.3058 62.1776 46.2899 62.147 45.2962C62.1596 44.3109 61.9997 43.4041 61.6673 42.576C61.3866 41.7131 60.8992 40.9895 60.205 40.4051C59.5625 39.7859 58.6789 39.3666 57.5543 39.1473C56.0405 38.852 54.4887 38.7514 52.8989 38.8454C51.3608 38.9046 49.8148 39.1194 48.2609 39.4898C46.7586 39.8254 45.2744 40.2992 43.8081 40.9111C42.3417 41.5231 40.9535 42.1952 39.6433 42.9275C39.5568 42.9106 39.4228 42.9069 39.2414 42.9164C39.0684 42.8827 38.9386 42.8574 38.8521 42.8405C38.4628 42.7646 38.0946 42.5805 37.7475 42.2883C37.4004 41.9961 37.2733 41.6121 37.3661 41.1363C37.383 41.0498 37.4557 40.9069 37.5844 40.7075C37.7215 40.4649 37.7985 40.3003 37.8154 40.2138L54.1413 22.116C55.5 20.6749 56.4351 19.2185 56.9466 17.7468C57.5014 16.2835 57.9602 14.622 58.3229 12.7621C57.0253 12.509 55.4999 12.5033 53.7466 12.745C52.0366 12.9952 50.297 13.3967 48.5279 13.9496C46.8021 14.511 45.12 15.1932 43.4817 15.9961C41.8867 16.8075 40.5512 17.6695 39.4753 18.5821C39.1651 18.791 38.9246 19.1032 38.7538 19.5189C38.5829 19.9346 38.3904 20.346 38.1763 20.7532C37.9706 21.1172 37.7301 21.4295 37.4548 21.6901C37.2311 21.9159 36.9031 21.9866 36.4705 21.9022C36.1245 21.8347 35.8644 21.6717 35.6904 21.4133C35.5247 21.1116 35.3849 20.7925 35.2709 20.456C35.1654 20.0762 35.1032 19.7049 35.0841 19.342C35.0651 18.9791 35.0767 18.6895 35.1189 18.4732C35.2876 17.6081 35.6473 16.915 36.1979 16.3938C36.7918 15.8811 37.4464 15.4026 38.1616 14.9584C39.5414 14.3296 41.1153 13.6263 42.8833 12.8487C44.6598 12.0278 46.4843 11.3061 48.3567 10.6836C50.2377 10.0177 52.1064 9.52916 53.9631 9.2178C55.863 8.91489 57.6564 8.92794 59.3433 9.25695C60.7274 9.52691 61.6416 10.0195 62.0858 10.7347C62.5816 11.4151 62.6862 12.4906 62.3993 13.9612C62.2475 14.7398 62.0824 15.4709 61.9042 16.1545C61.7344 16.7948 61.4048 17.4489 60.9153 18.1168L50.6228 31.8687C50.5026 32.0249 50.2747 32.2723 49.9393 32.6109C49.6471 32.958 49.329 33.3225 48.9852 33.7044C48.6413 34.0864 48.2974 34.4683 47.9535 34.8502C47.6613 35.1973 47.4377 35.4231 47.2826 35.5275C47.2309 35.5623 47.145 35.6578 47.0247 35.8139C46.9562 35.9353 46.896 36.0133 46.8443 36.0482C46.8876 36.0566 46.9266 36.0867 46.9614 36.1383C47.0479 36.1552 47.1128 36.1679 47.1561 36.1763C47.5454 36.2522 47.9125 36.2116 48.2574 36.0544C50.227 35.8548 52.0758 35.6991 53.8038 35.5871C55.5834 35.4404 57.4248 35.5526 59.328 35.9238C61.1879 36.2865 62.4955 36.8334 63.2509 37.5644C64.0496 38.3039 64.6024 39.1525 64.9095 40.1104C65.2165 41.0683 65.4118 42.139 65.4952 43.3226C65.6303 44.4715 65.9643 45.6366 66.4971 46.8181L80.7225 39.4904L81.0706 39.0869C81.0727 39.5363 81.2642 39.8206 81.645 39.9398C82.0259 40.059 82.3635 40.1697 82.6578 40.272C82.9522 40.3743 83.0566 40.5294 82.9712 40.7372C82.8857 40.945 82.3303 41.3755 81.305 42.0286C80.2881 42.6384 78.6978 43.5405 76.5342 44.7349C74.3706 45.9293 71.3578 47.5641 67.4959 49.6395L65.6999 50.9056C64.9038 56.1381 63.6346 60.9192 61.8922 65.2488C60.193 69.5869 57.96 73.4392 55.1931 76.8057C52.4695 80.1807 49.1688 83.0615 45.2911 85.448C41.4565 87.8431 37.0101 89.6922 31.9518 90.9954C31.822 90.9701 31.6231 90.9538 31.3552 90.9464C31.0872 90.939 30.8019 90.9058 30.4991 90.8468C30.1879 90.831 29.8809 90.7936 29.5781 90.7345C29.3102 90.7271 29.1329 90.715 29.0464 90.6982C28.0084 90.4957 27.1248 90.0764 26.3958 89.4403C25.7016 88.856 25.1451 88.1413 24.7262 87.2963C24.3506 86.4598 24.1216 85.562 24.0392 84.6031C23.9568 83.6442 24.0042 82.7105 24.1814 81.8022L24.4092 80.6344ZM27.6803 84.2357C27.7257 84.6935 27.8186 85.1382 27.9589 85.5696C28.1425 86.0095 28.3994 86.4188 28.7296 86.7975L30.2219 87.0886C31.1302 87.2657 32.068 87.2915 33.0354 87.1659C33.9944 87.0835 34.9528 86.8888 35.9106 86.5818C36.86 86.318 37.7831 85.9592 38.6798 85.5055C39.568 85.0951 40.3913 84.672 41.1498 84.2362C44.1394 82.2601 46.727 80.2729 48.9127 78.2747C51.0899 76.3197 52.9638 74.1933 54.5345 71.8955C56.1051 69.5978 57.4067 67.0679 58.4393 64.306C59.4719 61.5441 60.3382 58.3681 61.0384 54.7781C61.0637 54.6483 61.1012 54.3413 61.1507 53.8571C61.2351 53.4246 61.2899 53.1434 61.3152 53.0137C52.779 57.1856 44.7528 62.31 37.2369 68.3871C36.2126 69.2649 35.2015 70.1901 34.2036 71.1629C33.2405 72.1873 32.3381 73.246 31.4963 74.339C30.6894 75.4837 29.9864 76.671 29.3872 77.9012C28.7797 79.1745 28.3409 80.5033 28.071 81.8874C28.0372 82.0604 27.9613 82.4496 27.8432 83.0552C27.7684 83.6692 27.7141 84.0627 27.6803 84.2357Z" fill="#06294F"/>
<defs>
<filter id="filter0_i_28_96" x="0" y="0" width="100" height="100" filterUnits="userSpaceOnUse" color-interpolation-filters="sRGB">
<feFlood flood-opacity="0" result="BackgroundImageFix"/>
<feBlend mode="normal" in="SourceGraphic" in2="BackgroundImageFix" result="shape"/>
<feColorMatrix in="SourceAlpha" type="matrix" values="0 0 0 0 0 0 0 0 0 0 0 0 0 0 0 0 0 0 127 0" result="hardAlpha"/>
<feOffset/>
<feGaussianBlur stdDeviation="7.5"/>
<feComposite in2="hardAlpha" operator="arithmetic" k2="-1" k3="1"/>
<feColorMatrix type="matrix" values="0 0 0 0 0.0235294 0 0 0 0 0.160784 0 0 0 0 0.309804 0 0 0 0.2 0"/>
<feBlend mode="normal" in2="shape" result="effect1_innerShadow_28_96"/>
</filter>
<linearGradient id="paint0_linear_28_96" x1="50" y1="0" x2="50" y2="100" gradientUnits="userSpaceOnUse">
<stop stop-color="#F7BE3D"/>
</linearGradient>
</defs>
</svg>
